<svg width="17" height="15" viewBox="0 0 17 15" fill="none" xmlns="http://www.w3.org/2000/svg">
<path d="M0.888916 12.5667V4.3667C0.888916 3.53827 1.56049 2.8667 2.38892 2.8667H4.81798C5.2757 2.8667 5.70837 3.07569 5.99292 3.43421L7.31432 5.09919C7.59887 5.45771 8.03154 5.6667 8.48926 5.6667H14.0556C14.884 5.6667 15.5556 6.33827 15.5556 7.1667V12.5667C15.5556 13.3951 14.884 14.0667 14.0556 14.0667H2.38892C1.56049 14.0667 0.888916 13.3951 0.888916 12.5667Z" fill="#818181" stroke="#818181"/>
<path d="M5.54248 3.26668L6.36191 2.40173C6.64518 2.10272 7.03895 1.93335 7.45084 1.93335H13.6111C14.4395 1.93335 15.1111 2.60492 15.1111 3.43335V6.60002" stroke="#818181" stroke-width="2"/>
</svg>
