<svg width="28" height="28" viewBox="0 0 28 28" fill="none" xmlns="http://www.w3.org/2000/svg">
<path d="M15.899 13H12.101C10.3911 13 9 14.252 9 15.7909V21.4418C9 21.7501 9.27767 22 9.6202 22H18.3798C18.7223 22 19 21.7501 19 21.4418V15.7909C19 14.252 17.6089 13 15.899 13Z" fill="#818181"/>
<path d="M13.7777 6C12.2461 6 11 7.2853 11 8.86518C11 9.9368 11.5734 10.8727 12.4202 11.3641C12.8219 11.5971 13.285 11.7303 13.7777 11.7303C14.2705 11.7303 14.7335 11.5971 15.1352 11.3641C15.982 10.8727 16.5554 9.93677 16.5554 8.86518C16.5554 7.28533 15.3093 6 13.7777 6Z" fill="#818181"/>
</svg>
