<svg width="38" height="43" viewBox="0 0 38 43" fill="none" xmlns="http://www.w3.org/2000/svg">
<path d="M24.3504 19.4031L23.9239 18.7861C23.6881 18.9491 23.5658 19.2323 23.6089 19.5158C23.6519 19.7992 23.8528 20.0333 24.1264 20.1189L24.3504 19.4031ZM1 33.2134L0.270138 33.0408C0.211383 33.2892 0.283008 33.5505 0.460239 33.7342L1 33.2134ZM1.00081 33.2143L1.58676 32.7461L1.56489 32.7188L1.54057 32.6936L1.00081 33.2143ZM1.7899 34.1498L2.35386 33.6553L2.35178 33.653L1.7899 34.1498ZM1.9906 34.3681L2.54613 33.8643L2.54282 33.8607L1.9906 34.3681ZM2.62493 35.0442L2.08871 35.5686L2.08953 35.5694L2.62493 35.0442ZM2.89656 35.3128L3.42365 34.7793L3.42232 34.778L2.89656 35.3128ZM3.5051 35.8952L2.99716 36.447L2.99866 36.4484L3.5051 35.8952ZM3.81462 36.1738L3.31533 36.7335L3.31624 36.7343L3.81462 36.1738ZM4.43041 36.7026L4.91011 36.1261L4.90793 36.1243L4.43041 36.7026ZM4.76088 36.9729L4.28853 37.5555L4.29223 37.5584L4.76088 36.9729ZM5.40328 37.4666L4.95677 38.0692L4.95739 38.0696L5.40328 37.4666ZM5.73939 37.7151L6.17619 37.1054L6.17527 37.1047L5.73939 37.7151ZM6.43579 38.192L6.02111 38.817L6.02364 38.8186L6.43579 38.192ZM6.75094 38.402L6.34446 39.0323L6.34685 39.0339L6.75094 38.402ZM7.5755 38.9032L7.19739 39.551L7.19834 39.5515L7.5755 38.9032ZM7.79473 39.0338L8.16512 38.3816L8.16327 38.3806L7.79473 39.0338ZM8.89011 39.6187L8.55538 40.2898L8.56268 40.2934L8.57006 40.2969L8.89011 39.6187ZM8.91752 39.6312L9.25109 38.9595L9.24437 38.9561L9.23757 38.9529L8.91752 39.6312ZM9.99436 40.1307L10.295 39.4436L10.2922 39.4424L9.99436 40.1307ZM10.3361 40.2705L10.623 39.5775L10.622 39.5771L10.3361 40.2705ZM11.1292 40.5851L11.3905 39.882L11.3888 39.8814L11.1292 40.5851ZM11.5572 40.7357L11.3083 41.4432L11.3091 41.4434L11.5572 40.7357ZM12.2923 40.98L12.5146 40.2637L12.5136 40.2634L12.2923 40.98ZM12.7638 41.1189L12.9711 40.3981L12.9701 40.3978L12.7638 41.1189ZM13.4852 41.3139L13.3021 42.0412L13.3029 42.0414L13.4852 41.3139ZM13.9785 41.4319L13.8119 42.1631L13.812 42.1632L13.9785 41.4319ZM14.7096 41.5841L14.8506 40.8475L14.8504 40.8475L14.7096 41.5841ZM15.2085 41.6762L15.3332 40.9366L15.3304 40.9362L15.2085 41.6762ZM15.9718 41.7891L16.0721 41.0459L16.0716 41.0458L15.9718 41.7891ZM16.4554 41.8527L16.5394 41.1074L16.5363 41.1071L16.4554 41.8527ZM17.3066 41.928L17.2516 42.676L17.2521 42.6761L17.3066 41.928ZM17.7184 41.9607L17.7627 41.212L17.7593 41.2118L17.7184 41.9607ZM20.2816 41.9623L20.2407 41.2135L20.2403 41.2135L20.2816 41.9623ZM20.6934 41.9297L20.7483 42.6777H20.7483L20.6934 41.9297ZM21.5446 41.8544L21.6288 42.5997L21.6293 42.5996L21.5446 41.8544ZM22.0282 41.7908L21.9284 41.0475L21.9279 41.0476L22.0282 41.7908ZM22.7915 41.6779L22.9162 42.4174L22.9176 42.4172L22.7915 41.6779ZM23.2904 41.5858L23.1496 40.8492L23.1494 40.8492L23.2904 41.5858ZM24.0215 41.4335L23.8549 40.7023L23.8545 40.7024L24.0215 41.4335ZM24.5148 41.3156L24.6971 42.0431L24.6985 42.0427L24.5148 41.3156ZM25.2362 41.1206L25.4428 41.8416L25.4434 41.8414L25.2362 41.1206ZM25.7077 40.9817L25.93 41.698L25.9305 41.6978L25.7077 40.9817ZM26.4428 40.7374L26.6888 41.4459L26.6917 41.4448L26.4428 40.7374ZM26.8708 40.5868L26.6085 39.8841L26.6082 39.8842L26.8708 40.5868ZM27.6639 40.2721L27.378 39.5788L27.377 39.5792L27.6639 40.2721ZM28.0056 40.1324L28.302 40.8214L28.3046 40.8202L28.0056 40.1324ZM29.0776 39.6346L28.7535 38.9581L28.7428 38.9634L29.0776 39.6346ZM29.1099 39.6195L29.434 40.2959L29.4446 40.2906L29.1099 39.6195ZM30.2053 39.0346L29.8367 38.3814L29.8349 38.3825L30.2053 39.0346ZM30.4245 38.9041L30.8017 39.5523L30.8026 39.5518L30.4245 38.9041ZM31.2491 38.4029L30.8461 37.7703L30.845 37.771L31.2491 38.4029ZM31.5642 38.1929L31.1495 37.5679L31.1464 37.57L31.5642 38.1929ZM32.2606 37.7159L32.6959 38.3267L32.6985 38.3248L32.2606 37.7159ZM32.5967 37.4674L32.1487 36.8659L32.1479 36.8665L32.5967 37.4674ZM33.2391 36.9737L33.7064 37.5604L33.7067 37.5601L33.2391 36.9737ZM33.5696 36.7035L33.091 36.126L33.0899 36.1269L33.5696 36.7035ZM34.1854 36.1747L33.6883 35.6131L33.687 35.6142L34.1854 36.1747ZM34.4949 35.896L33.9869 35.3442L33.9863 35.3448L34.4949 35.896ZM35.1034 35.3137L35.6305 35.8472L35.6316 35.8462L35.1034 35.3137ZM35.3751 35.0451L35.9081 35.5727L35.9113 35.5694L35.3751 35.0451ZM36.0094 34.369L36.5659 34.8718L36.5675 34.87L36.0094 34.369ZM36.2101 34.1506L36.7682 34.6516L36.772 34.6474L36.2101 34.1506ZM36.9992 33.2151L36.4579 32.696L36.4344 32.7205L36.4132 32.747L36.9992 33.2151ZM37 33.2143L37.5413 33.7334C37.7174 33.5498 37.7884 33.2894 37.7299 33.0418L37 33.2143ZM24.7768 20.0201C27.5809 18.0822 29.4222 14.7813 29.4222 11.0408H27.9222C27.9222 14.2821 26.3283 17.1245 23.9239 18.7861L24.7768 20.0201ZM29.4222 11.0408C29.4222 5.10825 24.7819 0.25 19 0.25V1.75C23.9011 1.75 27.9222 5.8833 27.9222 11.0408H29.4222ZM19 0.25C13.2181 0.25 8.57778 5.10825 8.57778 11.0408H10.0778C10.0778 5.8833 14.0989 1.75 19 1.75V0.25ZM8.57778 11.0408C8.57778 14.7813 10.4191 18.0822 13.2232 20.0201L14.0761 18.7861C11.6717 17.1245 10.0778 14.2821 10.0778 11.0408H8.57778ZM13.3036 20.0685L13.3052 20.0694L13.9973 18.7386L13.9957 18.7378L13.3036 20.0685ZM13.4257 18.6874C6.93147 20.7193 1.89204 26.1835 0.270138 33.0408L1.72986 33.3861C3.23369 27.028 7.90034 21.9879 13.8736 20.1189L13.4257 18.6874ZM0.460239 33.7342L0.461045 33.735L1.54057 32.6936L1.53976 32.6927L0.460239 33.7342ZM0.414854 33.6824C0.678842 34.0128 0.951502 34.3338 1.22801 34.6465L2.35178 33.653C2.08826 33.3549 1.83217 33.0533 1.58676 32.7461L0.414854 33.6824ZM1.22594 34.6442C1.29798 34.7263 1.38831 34.8212 1.43837 34.8756L2.54282 33.8607C2.45908 33.7695 2.41239 33.7221 2.35385 33.6553L1.22594 34.6442ZM1.43507 34.872C1.64728 35.106 1.8643 35.3391 2.08871 35.5686L3.16116 34.5199C2.95354 34.3075 2.74982 34.0888 2.54612 33.8643L1.43507 34.872ZM2.08953 35.5694C2.18537 35.6671 2.28638 35.7647 2.3708 35.8477L3.42232 34.778C3.32458 34.6819 3.24343 34.6037 3.16033 34.519L2.08953 35.5694ZM2.36947 35.8464C2.57364 36.0481 2.78255 36.2494 2.99716 36.447L4.01305 35.3434C3.81498 35.161 3.61927 34.9725 3.42365 34.7793L2.36947 35.8464ZM2.99866 36.4484C3.10505 36.5458 3.21241 36.6417 3.31533 36.7335L4.3139 35.6142C4.21048 35.5219 4.10988 35.432 4.01155 35.342L2.99866 36.4484ZM3.31624 36.7343C3.52418 36.9192 3.73592 37.1018 3.95289 37.281L4.90793 36.1243C4.70738 35.9587 4.50967 35.7882 4.31299 35.6133L3.31624 36.7343ZM3.95072 37.2792C4.0646 37.3739 4.17872 37.4664 4.28854 37.5555L5.23322 36.3903C5.12219 36.3003 5.01546 36.2138 4.9101 36.1261L3.95072 37.2792ZM4.29223 37.5584C4.51192 37.7343 4.73386 37.904 4.95677 38.0692L5.84978 36.864C5.63906 36.7078 5.4322 36.5496 5.22954 36.3874L4.29223 37.5584ZM4.95739 38.0696C5.0553 38.142 5.18399 38.2401 5.30351 38.3254L6.17527 37.1047C6.06748 37.0278 5.97533 36.9568 5.84916 36.8635L4.95739 38.0696ZM5.30259 38.3248C5.54222 38.4964 5.78373 38.6594 6.02112 38.817L6.85046 37.5671C6.61874 37.4133 6.39438 37.2617 6.17619 37.1054L5.30259 38.3248ZM6.02364 38.8186C6.09467 38.8653 6.24623 38.969 6.34447 39.0323L7.15741 37.7717C7.04286 37.6979 6.98808 37.6576 6.84793 37.5654L6.02364 38.8186ZM6.34685 39.0339C6.62911 39.2144 6.91411 39.3856 7.19739 39.551L7.9536 38.2555C7.68073 38.0962 7.41441 37.9361 7.15503 37.7702L6.34685 39.0339ZM7.19834 39.5515C7.21186 39.5594 7.36865 39.6545 7.4262 39.687L8.16327 38.3806C8.07251 38.3294 8.08583 38.3325 7.95266 38.255L7.19834 39.5515ZM7.42435 39.6859C7.79438 39.8961 8.17142 40.0983 8.55538 40.2898L9.22485 38.9475C8.86727 38.7692 8.51406 38.5798 8.16512 38.3816L7.42435 39.6859ZM8.57006 40.2969C8.57611 40.2998 8.58148 40.3023 8.58554 40.3041C8.58947 40.3059 8.5932 40.3076 8.59527 40.3085C8.59783 40.3097 8.59874 40.3101 8.59939 40.3104C8.59991 40.3106 8.59908 40.3102 8.59746 40.3095L9.23757 38.9529C9.23152 38.9501 9.22615 38.9476 9.22209 38.9457C9.21816 38.944 9.21443 38.9423 9.21236 38.9413C9.2098 38.9402 9.20889 38.9398 9.20824 38.9395C9.20772 38.9392 9.20855 38.9396 9.21017 38.9404L8.57006 40.2969ZM8.58394 40.3029C8.94995 40.4847 9.32136 40.6567 9.6965 40.819L10.2922 39.4424C9.94032 39.2901 9.59277 39.1291 9.25109 38.9595L8.58394 40.3029ZM9.69375 40.8179C9.81231 40.8697 9.96852 40.9302 10.0502 40.9638L10.622 39.5771C10.4764 39.5171 10.4021 39.4905 10.295 39.4436L9.69375 40.8179ZM10.0492 40.9634C10.3134 41.0728 10.5875 41.1846 10.8696 41.2887L11.3888 39.8814C11.1358 39.7881 10.8844 39.6857 10.623 39.5775L10.0492 40.9634ZM10.868 41.2881C11.017 41.3435 11.1831 41.3991 11.3083 41.4432L11.8062 40.0282C11.6461 39.9719 11.5252 39.9321 11.3905 39.882L10.868 41.2881ZM11.3091 41.4434C11.5574 41.5305 11.8121 41.6167 12.0711 41.6966L12.5136 40.2634C12.2792 40.1911 12.0439 40.1116 11.8054 40.0279L11.3091 41.4434ZM12.07 41.6963C12.2354 41.7476 12.4 41.7949 12.5576 41.84L12.9701 40.3978C12.8117 40.3525 12.662 40.3095 12.5146 40.2637L12.07 41.6963ZM12.5566 41.8397C12.8022 41.9103 13.0505 41.9778 13.3021 42.0412L13.6683 40.5866C13.4347 40.5278 13.2026 40.4647 12.9711 40.3981L12.5566 41.8397ZM13.3029 42.0414C13.4718 42.0837 13.6414 42.1243 13.8119 42.1631L14.1451 40.7006C13.9851 40.6641 13.8259 40.6261 13.6675 40.5864L13.3029 42.0414ZM13.812 42.1632C14.0646 42.2206 14.3166 42.2726 14.5687 42.3208L14.8504 40.8475C14.6124 40.802 14.3777 40.7535 14.145 40.7006L13.812 42.1632ZM14.5685 42.3208C14.7285 42.3514 14.9066 42.3866 15.0866 42.4162L15.3304 40.9362C15.175 40.9106 15.0228 40.8805 14.8506 40.8475L14.5685 42.3208ZM15.0838 42.4157C15.3493 42.4605 15.6138 42.4978 15.872 42.5325L16.0716 41.0458C15.8187 41.0119 15.5738 40.9772 15.3332 40.9366L15.0838 42.4157ZM15.8715 42.5324C16.0168 42.552 16.1996 42.5794 16.3745 42.5984L16.5363 41.1071C16.3872 41.0909 16.2492 41.0698 16.0721 41.0459L15.8715 42.5324ZM16.3714 42.598C16.6688 42.6315 16.9654 42.655 17.2516 42.676L17.3615 41.1801C17.0787 41.1593 16.8063 41.1375 16.5394 41.1075L16.3714 42.598ZM17.2521 42.6761C17.3419 42.6826 17.5415 42.7021 17.6775 42.7096L17.7593 41.2118C17.6197 41.2042 17.5469 41.1936 17.361 41.18L17.2521 42.6761ZM17.6742 42.7094C18.1118 42.7352 18.5531 42.75 19 42.75V41.25C18.5861 41.25 18.1746 41.2363 17.7627 41.212L17.6742 42.7094ZM19 42.75C19.4469 42.75 19.8873 42.7352 20.3229 42.7112L20.2403 41.2135C19.8263 41.2363 19.414 41.25 19 41.25V42.75ZM20.3225 42.7112C20.4597 42.7037 20.6573 42.6844 20.7483 42.6777L20.6386 41.1817C20.4555 41.1951 20.3791 41.2059 20.2407 41.2135L20.3225 42.7112ZM20.7483 42.6777C21.0354 42.6567 21.3321 42.6332 21.6288 42.5997L21.4604 41.1092C21.1945 41.1392 20.9222 41.1609 20.6386 41.1817L20.7483 42.6777ZM21.6293 42.5996C21.8017 42.58 21.9781 42.5544 22.1285 42.5341L21.9279 41.0476C21.7559 41.0708 21.6115 41.092 21.4599 41.1092L21.6293 42.5996ZM22.128 42.5341C22.3862 42.4995 22.6507 42.4622 22.9162 42.4174L22.6668 40.9383C22.4262 40.9789 22.1813 41.0135 21.9284 41.0475L22.128 42.5341ZM22.9176 42.4172C23.0932 42.3872 23.2667 42.354 23.4315 42.3224L23.1494 40.8492C22.9821 40.8812 22.8235 40.9116 22.6654 40.9385L22.9176 42.4172ZM23.4313 42.3225C23.683 42.2743 23.9361 42.2223 24.1885 42.1647L23.8545 40.7024C23.6232 40.7552 23.388 40.8036 23.1496 40.8492L23.4313 42.3225ZM24.1881 42.1648C24.3586 42.1259 24.5282 42.0854 24.6971 42.0431L24.3325 40.588C24.1741 40.6277 24.0149 40.6658 23.8549 40.7023L24.1881 42.1648ZM24.6985 42.0427C24.9489 41.9794 25.1968 41.9121 25.4428 41.8416L25.0295 40.3996C24.7967 40.4663 24.5643 40.5295 24.3311 40.5884L24.6985 42.0427ZM25.4434 41.8414C25.5983 41.7969 25.7645 41.7493 25.93 41.698L25.4854 40.2654C25.3381 40.3111 25.1884 40.3539 25.0289 40.3998L25.4434 41.8414ZM25.9305 41.6978C26.1894 41.6173 26.4425 41.5314 26.6888 41.4459L26.1968 40.0289C25.9562 40.1124 25.7208 40.1921 25.4849 40.2655L25.9305 41.6978ZM26.6917 41.4448C26.8152 41.4014 26.9844 41.345 27.1333 41.2893L26.6082 39.8842C26.4751 39.934 26.3557 39.9729 26.1938 40.0299L26.6917 41.4448ZM27.133 41.2894C27.4115 41.1855 27.6842 41.0755 27.9508 40.9651L27.377 39.5792C27.1181 39.6864 26.8636 39.7889 26.6085 39.8841L27.133 41.2894ZM27.9498 40.9655C28.0373 40.9294 28.1862 40.8712 28.302 40.8214L27.7093 39.4434C27.5994 39.4907 27.5178 39.5211 27.378 39.5788L27.9498 40.9655ZM28.3046 40.8202C28.6763 40.6587 29.0464 40.4883 29.4124 40.3057L28.7428 38.9634C28.4045 39.1322 28.0588 39.2915 27.7067 39.4446L28.3046 40.8202ZM29.4017 40.3109C29.4012 40.3112 29.4017 40.3109 29.408 40.308C29.4125 40.3059 29.423 40.3011 29.434 40.2959L28.7858 38.9431C28.7863 38.9429 28.7859 38.9431 28.7795 38.946C28.775 38.9481 28.7645 38.9529 28.7536 38.9582L29.4017 40.3109ZM29.4446 40.2906C29.8286 40.0991 30.2056 39.8969 30.5757 39.6868L29.8349 38.3825C29.4859 38.5806 29.1327 38.77 28.7752 38.9483L29.4446 40.2906ZM30.5738 39.6878C30.6313 39.6554 30.7883 39.5602 30.8017 39.5523L30.0473 38.2558C29.9141 38.3334 29.9276 38.3302 29.8367 38.3814L30.5738 39.6878ZM30.8026 39.5518C31.0859 39.3864 31.3709 39.2152 31.6531 39.0347L30.845 37.771C30.5856 37.9369 30.3193 38.0971 30.0464 38.2564L30.8026 39.5518ZM31.652 39.0354C31.7683 38.9613 31.8894 38.8778 31.982 38.8157L31.1464 37.57C31.0295 37.6484 30.9426 37.7089 30.8461 37.7703L31.652 39.0354ZM31.9789 38.8178C32.2176 38.6594 32.458 38.4963 32.6959 38.3267L31.8253 37.1052C31.6055 37.2619 31.3799 37.4151 31.1495 37.5679L31.9789 38.8178ZM32.6985 38.3248C32.8183 38.2386 32.9366 38.1497 33.0455 38.0683L32.1479 36.8665C32.0328 36.9525 31.9286 37.0309 31.8227 37.1071L32.6985 38.3248ZM33.0447 38.0689C33.2666 37.9036 33.4876 37.7346 33.7064 37.5604L32.7719 36.3871C32.5683 36.5492 32.3605 36.7082 32.1487 36.8659L33.0447 38.0689ZM33.7067 37.5601C33.824 37.4666 33.9382 37.3724 34.0493 37.28L33.0899 36.1269C32.9817 36.2169 32.8767 36.3035 32.7715 36.3873L33.7067 37.5601ZM34.0482 37.2809C34.2629 37.1029 34.4751 36.9207 34.6838 36.7351L33.687 35.6142C33.4911 35.7884 33.2921 35.9593 33.091 36.126L34.0482 37.2809ZM34.6825 36.7362C34.7878 36.643 34.8963 36.5461 35.0035 36.4472L33.9863 35.3448C33.8904 35.4333 33.7909 35.5222 33.6883 35.6131L34.6825 36.7362ZM35.0028 36.4478C35.2175 36.2503 35.4264 36.0489 35.6305 35.8472L34.5764 34.7801C34.3807 34.9734 34.185 35.1619 33.9869 35.3442L35.0028 36.4478ZM35.6316 35.8462C35.7106 35.7678 35.8169 35.6648 35.908 35.5727L34.8421 34.5174C34.7543 34.6061 34.6768 34.6805 34.5753 34.7811L35.6316 35.8462ZM35.9113 35.5694C36.1352 35.3405 36.3531 35.1073 36.5659 34.8718L35.4529 33.8662C35.2514 34.0892 35.047 34.3078 34.8388 34.5207L35.9113 35.5694ZM36.5675 34.87C36.5954 34.8389 36.6246 34.8075 36.659 34.7705C36.6919 34.7351 36.7301 34.6941 36.7682 34.6516L35.652 33.6496C35.6241 33.6807 35.5949 33.7121 35.5605 33.7491C35.5276 33.7845 35.4895 33.8255 35.4513 33.868L36.5675 34.87ZM36.772 34.6474C37.0485 34.3346 37.3212 34.0137 37.5851 33.6833L36.4132 32.747C36.1678 33.0541 35.9117 33.3557 35.6482 33.6538L36.772 34.6474ZM37.5405 33.7343L37.5413 33.7334L36.4587 32.6951L36.4579 32.696L37.5405 33.7343ZM37.7299 33.0418C36.1088 26.1835 31.0685 20.7193 24.5743 18.6874L24.1264 20.1189C30.0997 21.9879 34.7671 27.028 36.2701 33.3868L37.7299 33.0418Z" fill="#4F4F4F"/>
</svg>
