<svg width="28" height="28" viewBox="0 0 28 28" fill="none" xmlns="http://www.w3.org/2000/svg">
<path d="M19.6903 13.7313H18.4529C18.579 14.0779 18.6479 14.452 18.6479 14.8419V19.536C18.6479 19.6986 18.6197 19.8546 18.5684 19.9997H20.6141C21.3783 19.9997 21.9999 19.3757 21.9999 18.6087V16.0497C22 14.7713 20.9638 13.7313 19.6903 13.7313Z" fill="#818181"/>
<path d="M9.35206 14.8422C9.35206 14.4523 9.42097 14.0783 9.54709 13.7317H8.30971C7.03613 13.7317 6 14.7717 6 16.05V18.609C6 19.376 6.62166 20.0001 7.38582 20.0001H9.43153C9.38025 19.8549 9.35206 19.6989 9.35206 19.5363V14.8422V14.8422Z" fill="#818181"/>
<path d="M15.4147 13H12.5858C11.3123 13 10.2761 14.1129 10.2761 15.4808V20.5038C10.2761 20.7778 10.4829 21 10.7381 21H17.2624C17.5176 21 17.7244 20.7779 17.7244 20.5038V15.4808C17.7244 14.1129 16.6882 13 15.4147 13Z" fill="#818181"/>
<path d="M14.0001 6C12.4685 6 11.2224 7.2853 11.2224 8.86518C11.2224 9.9368 11.7958 10.8727 12.6426 11.3641C13.0443 11.5971 13.5074 11.7303 14.0001 11.7303C14.4929 11.7303 14.9559 11.5971 15.3576 11.3641C16.2045 10.8727 16.7778 9.93677 16.7778 8.86518C16.7778 7.28533 15.5318 6 14.0001 6Z" fill="#818181"/>
<path d="M9.12253 8.67053C7.97705 8.67053 7.04517 9.63175 7.04517 10.8133C7.04517 11.9948 7.97705 12.956 9.12253 12.956C9.41309 12.956 9.68978 12.894 9.94113 12.7824C10.3757 12.5894 10.734 12.2478 10.9557 11.8199C11.1114 11.5195 11.1999 11.1769 11.1999 10.8133C11.1999 9.63178 10.268 8.67053 9.12253 8.67053Z" fill="#818181"/>
<path d="M18.8777 8.67053C17.7322 8.67053 16.8003 9.63175 16.8003 10.8133C16.8003 11.177 16.8888 11.5196 17.0445 11.8199C17.2662 12.2478 17.6245 12.5894 18.0591 12.7824C18.3104 12.894 18.5871 12.956 18.8777 12.956C20.0231 12.956 20.955 11.9948 20.955 10.8133C20.955 9.63175 20.0231 8.67053 18.8777 8.67053Z" fill="#818181"/>
</svg>
